<svg xmlns="http://www.w3.org/2000/svg" width="960" height="320" viewBox="0 0 960 320" role="img" aria-labelledby="title desc">
  <title id="title">Purrch logo</title>
  <desc id="desc">Cat-inspired Purrch project logo with orchestration nodes and a terminal mark.</desc>
  <rect width="960" height="320" rx="28" fill="#f8fafc"/>
  <g transform="translate(56 40)">
    <rect x="34" y="64" width="188" height="156" rx="34" fill="#111827"/>
    <path d="M72 80 92 35l34 42M184 80l-20-45-34 42" fill="#111827" stroke="#111827" stroke-width="14" stroke-linejoin="round"/>
    <circle cx="96" cy="130" r="11" fill="#f59e0b"/>
    <circle cx="160" cy="130" r="11" fill="#f59e0b"/>
    <path d="M118 156h20l-10 10z" fill="#f8fafc"/>
    <path d="M104 178c16 16 32 16 48 0" fill="none" stroke="#f8fafc" stroke-width="8" stroke-linecap="round"/>
    <path d="M46 154H8M210 154h38M50 180 12 198M206 180l38 18" fill="none" stroke="#111827" stroke-width="8" stroke-linecap="round"/>
    <rect x="62" y="200" width="132" height="44" rx="12" fill="#0f766e"/>
    <path d="m86 229 18-14-18-14" fill="none" stroke="#f8fafc" stroke-width="7" stroke-linecap="round" stroke-linejoin="round"/>
    <path d="M124 226h34" fill="none" stroke="#f8fafc" stroke-width="7" stroke-linecap="round"/>
    <g fill="#2563eb" stroke="#f8fafc" stroke-width="7">
      <circle cx="36" cy="54" r="18"/>
      <circle cx="226" cy="54" r="18"/>
      <circle cx="128" cy="16" r="18"/>
    </g>
    <path d="M55 58c28-22 46-34 73-38M201 58c-28-22-46-34-73-38" fill="none" stroke="#2563eb" stroke-width="8" stroke-linecap="round"/>
  </g>
  <g fill="#111827" font-family="Inter, ui-sans-serif, system-ui, -apple-system, BlinkMacSystemFont, 'Segoe UI', sans-serif">
    <text x="340" y="142" font-size="86" font-weight="800">Purrch</text>
    <text x="344" y="196" font-size="30" font-weight="600" fill="#0f766e">coding-agent orchestration</text>
    <text x="344" y="238" font-size="24" fill="#475569">public brand for the current orchv3 CLI</text>
  </g>
</svg>
